<svg width="20" height="20" viewBox="0 0 20 20" fill="none" xmlns="http://www.w3.org/2000/svg">
<path d="M10.8334 4.16665C10.8334 3.70641 10.4603 3.33331 10 3.33331C9.5398 3.33331 9.16671 3.70641 9.16671 4.16665V9.16665H4.16671C3.70647 9.16665 3.33337 9.53974 3.33337 9.99998C3.33337 10.4602 3.70647 10.8333 4.16671 10.8333H9.16671V15.8333C9.16671 16.2936 9.5398 16.6666 10 16.6666C10.4603 16.6666 10.8334 16.2936 10.8334 15.8333V10.8333H15.8334C16.2936 10.8333 16.6667 10.4602 16.6667 9.99998C16.6667 9.53974 16.2936 9.16665 15.8334 9.16665H10.8334V4.16665Z" fill="#1EB65B"/>
</svg>
